name analog
datacolumns 19
datarows 51
range 0.0 0.025
endheader
time	ground_force_vx	ground_force_vy	ground_force_vz	ground_force_px	ground_force_py	ground_force_pz	l_ground_force_vx	l_ground_force_vy	l_ground_force_vz	l_ground_force_px	l_ground_force_py	l_ground_force_pz	ground_torque_x	ground_torque_y	ground_torque_z	l_ground_torque_x	l_ground_torque_y	l_ground_torque_z
0.0	-0.0	-0.0	-0.0	2.6917271614074707	27.84555053710937	-687.3612670898438	11.600496292114258	-10.367535591125488	-138.890625	-0.0	-0.0	-0.0	-0.0	-0.0	-0.0	43911.51171875	-17505.703125	4681.150390625
0.0005	-0.0	-0.0	-0.0	2.267235040664673	27.452163696289062	-676.7914428710938	10.947940826416016	-11.248079299926758	-144.1277618408203	-0.0	-0.0	-0.0	-0.0	-0.0	-0.0	45231.703125	-18087.78515625	4643.8681640625
0.001	-0.0	-0.0	-0.0	1.6243116855621338	26.638282775878903	-670.4822387695312	10.538290023803713	-12.64821434020996	-149.0048828125	-0.0	-0.0	-0.0	-0.0	-0.0	-0.0	46937.7421875	-18528.279296875	4785.3876953125
0.0015	-0.0	-0.0	-0.0	1.7471139430999756	26.13021278381348	-659.6806640625	10.27213191986084	-14.692133903503418	-153.410400390625	-0.0	-0.0	-0.0	-0.0	-0.0	-0.0	48412.96875	-18950.908203125	4784.64501953125
0.002	-0.0	-0.0	-0.0	1.3195730447769165	25.63241958618164	-650.3660888671875	9.920318603515623	-15.916177749633787	-159.2733154296875	-0.0	-0.0	-0.0	-0.0	-0.0	-0.0	50148.83203125	-19376.103515625	4933.380859375
0.0025	-0.0	-0.0	-0.0	1.497957706451416	25.19058609008789	-642.9658203125	9.89882469177246	-17.99608039855957	-163.75210571289062	-0.0	-0.0	-0.0	-0.0	-0.0	-0.0	51691.9765625	-20142.349609375	4967.578125
0.003	-0.0	-0.0	-0.0	1.0518795251846311	24.566749572753903	-636.15087890625	10.094612121582031	-19.500757217407227	-169.74688720703125	-0.0	-0.0	-0.0	-0.0	-0.0	-0.0	53391.19140625	-20581.03515625	5075.9052734375
0.0035	-0.0	-0.0	-0.0	0.9481543302536012	24.68912124633789	-628.381103515625	10.13148307800293	-21.105342864990234	-177.57290649414062	-0.0	-0.0	-0.0	-0.0	-0.0	-0.0	55020.19921875	-21044.505859375	5240.03857421875
0.004	-0.0	-0.0	-0.0	0.4647720754146576	24.05088806152344	-618.06494140625	9.761922836303713	-23.08505630493164	-185.31202697753903	-0.0	-0.0	-0.0	-0.0	-0.0	-0.0	57547.61328125	-21957.263671875	5576.66943359375
0.0045000000000000005	-0.0	-0.0	-0.0	0.5495082139968872	24.01801872253418	-608.9178466796875	10.57509422302246	-24.65635108947754	-191.68423461914065	-0.0	-0.0	-0.0	-0.0	-0.0	-0.0	59880.7109375	-22412.375	5825.21826171875
0.005	-0.0	-0.0	-0.0	0.2535321116447449	23.81190490722656	-601.558349609375	11.35498046875	-26.70206451416016	-199.99087524414065	-0.0	-0.0	-0.0	-0.0	-0.0	-0.0	62139.671875	-23101.599609375	6129.34521484375
0.0055	-0.0	-0.0	-0.0	-0.1080247238278389	23.549222946166992	-591.8743286132812	11.831494331359863	-28.225934982299805	-207.7286529541016	-0.0	-0.0	-0.0	-0.0	-0.0	-0.0	64696.44140625	-23630.609375	6292.8359375
0.006	-0.0	-0.0	-0.0	0.1357520222663879	23.084774017333984	-583.69677734375	12.116159439086914	-29.77861976623535	-219.10366821289065	-0.0	-0.0	-0.0	-0.0	-0.0	-0.0	67684.359375	-24322.19921875	6581.69677734375
0.006500000000000001	-0.0	-0.0	-0.0	0.4082998037338257	23.37102508544922	-574.4743041992188	12.349444389343262	-31.48921775817871	-228.16282653808597	-0.0	-0.0	-0.0	-0.0	-0.0	-0.0	70596.2265625	-24971.298828125	6795.35986328125
0.007	-0.0	-0.0	-0.0	0.1216826289892196	22.968549728393555	-562.0802612304688	12.788336753845217	-32.539581298828125	-238.6356658935547	-0.0	-0.0	-0.0	-0.0	-0.0	-0.0	73538.5234375	-25431.169921875	6895.38134765625
0.0075	-0.0	-0.0	-0.0	0.4918878674507141	23.09820938110352	-553.4862060546875	12.970483779907228	-34.03628921508789	-247.455810546875	-0.0	-0.0	-0.0	-0.0	-0.0	-0.0	76719.859375	-26125.96484375	7147.99560546875
0.008	-0.0	-0.0	-0.0	0.0246393680572509	23.01460075378418	-542.709716796875	13.554006576538086	-35.128387451171875	-258.3525085449219	-0.0	-0.0	-0.0	-0.0	-0.0	-0.0	79970.6328125	-26859.306640625	7485.24169921875
0.0085	-0.0	-0.0	-0.0	0.1462447494268417	22.753087997436523	-531.935302734375	14.94418716430664	-37.05771255493164	-270.27642822265625	-0.0	-0.0	-0.0	-0.0	-0.0	-0.0	83386.5546875	-27260.357421875	7830.78759765625
0.009000000000000001	-0.0	-0.0	-0.0	0.356842041015625	22.887481689453125	-517.9364624023438	16.019020080566406	-38.69293975830078	-282.2944030761719	-0.0	-0.0	-0.0	-0.0	-0.0	-0.0	86838.2890625	-27813.08984375	8087.26513671875
0.0095	-0.0	-0.0	-0.0	-0.1341178715229034	22.683988571166992	-510.3182678222656	16.424840927124023	-40.2371711730957	-292.8424072265625	-0.0	-0.0	-0.0	-0.0	-0.0	-0.0	90241.8671875	-28390.763671875	8460.1748046875
0.01	-0.0	-0.0	-0.0	-0.2676315307617187	21.996116638183597	-500.8593444824219	17.06454849243164	-42.09185791015625	-303.91778564453125	-0.0	-0.0	-0.0	-0.0	-0.0	-0.0	93846.7421875	-28900.767578125	8650.7197265625
0.0105	-0.0	-0.0	-0.0	-0.2867777943611145	21.830432891845703	-490.6685485839844	17.22294807434082	-44.04785919189453	-314.9861755371094	-0.0	-0.0	-0.0	-0.0	-0.0	-0.0	97267.6171875	-29262.96484375	8703.314453125
0.011	-0.0	-0.0	-0.0	-0.8537614345550537	21.684484481811523	-481.9155578613281	17.172014236450195	-45.54917907714844	-325.31121826171875	-0.0	-0.0	-0.0	-0.0	-0.0	-0.0	100616.3828125	-29208.89453125	8817.197265625
0.0115	-0.0	-0.0	-0.0	-0.5984345078468323	21.39129638671875	-469.8324279785156	17.12118148803711	-47.24596405029297	-337.4317321777344	-0.0	-0.0	-0.0	-0.0	-0.0	-0.0	103953.3359375	-29553.7109375	8770.1044921875
0.012	-0.0	-0.0	-0.0	-0.580765426158905	21.12390518188477	-462.26409912109375	16.557241439819336	-48.97436141967773	-345.9344482421875	-0.0	-0.0	-0.0	-0.0	-0.0	-0.0	106982.984375	-29537.005859375	8851.9345703125
0.0125	-0.0	-0.0	-0.0	-1.082655429840088	20.44936752319336	-453.7881774902344	16.449569702148438	-50.317962646484375	-357.5057983398437	-0.0	-0.0	-0.0	-0.0	-0.0	-0.0	110257.8359375	-29660.359375	8624.7880859375
0.013000000000000001	-0.0	-0.0	-0.0	-1.5165786743164062	20.511964797973636	-444.2054748535156	15.929794311523438	-51.40322113037109	-367.2062683105469	-0.0	-0.0	-0.0	-0.0	-0.0	-0.0	113097.359375	-29798.98828125	8550.1201171875
0.0135	-0.0	-0.0	-0.0	-2.4592080116271973	20.11231803894043	-439.0323791503906	14.878867149353027	-52.866641998291016	-376.0093688964844	-0.0	-0.0	-0.0	-0.0	-0.0	-0.0	115942.9296875	-29667.814453125	8398.4677734375
0.014	-0.0	-0.0	-0.0	-2.5483744144439697	19.887819290161133	-429.39013671875	14.080645561218262	-53.857181549072266	-382.0471801757813	-0.0	-0.0	-0.0	-0.0	-0.0	-0.0	118133.8671875	-29502.80859375	8073.67431640625
0.0145	-0.0	-0.0	-0.0	-2.528899908065796	19.63966560363769	-422.1117858886719	12.958902359008787	-54.48249435424805	-390.672607421875	-0.0	-0.0	-0.0	-0.0	-0.0	-0.0	120870.703125	-29130.326171875	7890.0380859375
0.015	-0.0	-0.0	-0.0	-2.913050413131714	19.441875457763672	-414.14398193359375	11.906449317932127	-55.900352478027344	-399.8434753417969	-0.0	-0.0	-0.0	-0.0	-0.0	-0.0	123162.53125	-29335.49609375	7452.78662109375
0.0155	-0.0	-0.0	-0.0	-3.239163875579834	18.945878982543945	-409.688720703125	10.645294189453123	-57.155860900878906	-407.0521545410156	-0.0	-0.0	-0.0	-0.0	-0.0	-0.0	125335.171875	-28813.900390625	7135.65576171875
0.016	-0.0	-0.0	-0.0	-3.180868148803711	19.1937198638916	-402.0731506347656	9.93560791015625	-58.37305068969727	-413.1380615234375	-0.0	-0.0	-0.0	-0.0	-0.0	-0.0	127269.421875	-28578.388671875	6758.18798828125
0.0165	-0.0	-0.0	-0.0	-3.755313634872437	18.965255737304688	-396.1905517578125	8.975386619567871	-58.51884841918945	-417.9797668457031	-0.0	-0.0	-0.0	-0.0	-0.0	-0.0	129135.0390625	-28379.958984375	6705.8935546875
0.017	-0.0	-0.0	-0.0	-4.103683471679688	18.923847198486328	-390.8927307128906	8.871078491210938	-59.12571716308594	-423.01953125	-0.0	-0.0	-0.0	-0.0	-0.0	-0.0	130610.109375	-28157.015625	6458.05224609375
0.0175	-0.0	-0.0	-0.0	-5.026203155517578	19.24135971069336	-382.4510498046875	8.022698402404785	-60.07802581787109	-428.7262878417969	-0.0	-0.0	-0.0	-0.0	-0.0	-0.0	132259.546875	-28366.458984375	6321.83642578125
0.018000000000000002	-0.0	-0.0	-0.0	-5.609591960906982	18.36981964111328	-380.6925048828125	7.767749309539795	-60.89508438110352	-433.7990112304688	-0.0	-0.0	-0.0	-0.0	-0.0	-0.0	133479.921875	-28028.2890625	6156.4619140625
0.0185	-0.0	-0.0	-0.0	-6.264407157897949	18.55877685546875	-373.3112182617188	6.750489234924316	-61.28681945800781	-436.5924987792969	-0.0	-0.0	-0.0	-0.0	-0.0	-0.0	134955.96875	-27949.306640625	5941.53955078125
0.019	-0.0	-0.0	-0.0	-6.214616775512695	18.786834716796875	-369.97662353515625	6.503946304321289	-61.7562370300293	-441.9066162109375	-0.0	-0.0	-0.0	-0.0	-0.0	-0.0	136549.234375	-27825.33984375	5743.763671875
0.0195	-0.0	-0.0	-0.0	-6.829741954803467	18.548572540283203	-365.8130493164063	6.179537773132324	-62.28620529174805	-446.683837890625	-0.0	-0.0	-0.0	-0.0	-0.0	-0.0	137844.109375	-27700.197265625	5571.93310546875
0.02	-0.0	-0.0	-0.0	-7.245821475982666	19.024770736694336	-364.481689453125	5.115117073059082	-63.0916633605957	-451.8790893554688	-0.0	-0.0	-0.0	-0.0	-0.0	-0.0	139175.5	-27485.55859375	5439.263671875
0.0205	-0.0	-0.0	-0.0	-6.839385986328125	19.03434944152832	-359.06591796875	5.106106281280518	-63.59161376953125	-456.3053894042969	-0.0	-0.0	-0.0	-0.0	-0.0	-0.0	139990.578125	-27491.90234375	5277.25732421875
0.021	-0.0	-0.0	-0.0	-6.958419799804688	18.90558624267578	-356.9081726074219	4.642884254455566	-63.97468948364258	-457.9326477050781	-0.0	-0.0	-0.0	-0.0	-0.0	-0.0	141362.359375	-27187.73828125	5122.03076171875
0.021500000000000002	-0.0	-0.0	-0.0	-7.15670919418335	18.92561912536621	-354.0436096191406	4.415907382965088	-64.26850891113281	-462.0048828125	-0.0	-0.0	-0.0	-0.0	-0.0	-0.0	142129.859375	-27095.759765625	4983.50439453125
0.022	-0.0	-0.0	-0.0	-7.097654342651367	19.529197692871094	-349.7698059082031	4.189060688018799	-64.64195251464844	-464.4093017578125	-0.0	-0.0	-0.0	-0.0	-0.0	-0.0	143406.484375	-26971.84375	4927.310546875
0.0225	-0.0	-0.0	-0.0	-8.067877769470215	19.22276306152344	-348.9417724609375	4.287757873535156	-65.18141174316406	-468.8331298828125	-0.0	-0.0	-0.0	-0.0	-0.0	-0.0	144451.5	-26913.685546875	4854.65283203125
0.023	-0.0	-0.0	-0.0	-7.85052490234375	19.07390594482422	-347.09686279296875	3.9230010509490967	-65.49541473388672	-472.3630981445313	-0.0	-0.0	-0.0	-0.0	-0.0	-0.0	145542.296875	-26751.98828125	4844.46044921875
0.0235	-0.0	-0.0	-0.0	-7.564403533935547	19.006248474121094	-343.60748291015625	4.051248073577881	-65.662353515625	-475.4667663574219	-0.0	-0.0	-0.0	-0.0	-0.0	-0.0	146470.640625	-26582.59765625	4788.53564453125
0.024	-0.0	-0.0	-0.0	-7.801365375518799	19.528657913208008	-340.5086975097656	4.386404514312744	-65.74054718017578	-478.1819458007813	-0.0	-0.0	-0.0	-0.0	-0.0	-0.0	147247.203125	-26569.734375	4887.6044921875
0.0245	-0.0	-0.0	-0.0	-7.335323810577393	19.41933822631836	-338.2314758300781	4.268527984619141	-66.06462097167969	-479.6562805175781	-0.0	-0.0	-0.0	-0.0	-0.0	-0.0	148138.421875	-26504.703125	4992.84912109375
0.025	-0.0	-0.0	-0.0	-7.096644401550293	19.17430686950684	-335.4860534667969	4.937351703643799	-66.41790771484375	-482.4493713378906	-0.0	-0.0	-0.0	-0.0	-0.0	-0.0	148548.984375	-26538.185546875	5075.5732421875
